<svg width="496" height="620" viewBox="0 0 496 620" fill="none" xmlns="http://www.w3.org/2000/svg">
<path d="M248.001 310C213.901 310 186.001 282.1 186.001 248C186.001 213.9 213.901 186 248.001 186C282.101 186 310.001 213.9 310.001 248C310.001 282.1 282.101 310 248.001 310ZM434.001 254.2C434.001 141.67 351.851 62 248.001 62C144.151 62 62.001 141.67 62.001 254.2C62.001 326.74 122.451 422.84 248.001 537.54C373.551 422.84 434.001 326.74 434.001 254.2ZM248.001 0C378.201 0 496.001 99.82 496.001 254.2C496.001 357.12 413.231 478.95 248.001 620C82.771 478.95 0.000976562 357.12 0.000976562 254.2C0.000976562 99.82 117.801 0 248.001 0Z" fill="white"/>
</svg>
